<svg xmlns="http://www.w3.org/2000/svg" viewBox="0 0 32 25" fill="none" x="0px" y="0px">
    <path fill="currentColor" fill-rule="evenodd" clip-rule="evenodd" d="M12.0494 9C12.5511 3.94668 16.8147 0 22 0C27.5228 0 32 4.47715 32 10C32 15.5228 27.5228 20 22 20C16.8147 20 12.5511 16.0533 12.0494 11H8C8 12.6569 6.65685 14 5 14H3C1.34315 14 0 12.6569 0 11V9C0 7.34315 1.34315 6 3 6H5C6.65685 6 8 7.34315 8 9H12.0494ZM27 10C27 9.44772 26.5523 9 26 9H23V6C23 5.44771 22.5523 5 22 5C21.4477 5 21 5.44771 21 6V9H18C17.4477 9 17 9.44771 17 10C17 10.5523 17.4477 11 18 11H21V14C21 14.5523 21.4477 15 22 15C22.5523 15 23 14.5523 23 14V11H26C26.5523 11 27 10.5523 27 10Z"/>
</svg>