<svg xmlns="http://www.w3.org/2000/svg" xmlns:xlink="http://www.w3.org/1999/xlink" version="1.1" x="0px" y="0px" viewBox="0 0 100 125" enable-background="new 0 0 100 100" xml:space="preserve">
    <path fill="currentColor" d="M50.4,5c-24.8,0-45,20.2-45,45s20.2,45,45,45c24.8,0,45-20.2,45-45S75.2,5,50.4,5z M50,53.4c-2.1,0-3.8-1.7-3.8-3.8  c0-2.1,1.7-3.8,3.8-3.8c2.1,0,3.8,1.7,3.8,3.8C53.8,51.7,52.1,53.4,50,53.4z M56.4,51.8c0.6-0.9,1-2,1-3.3c0-3.2-2.6-5.8-5.8-5.8  c-0.6,0-1.1,0.1-1.7,0.3l27.4-13L56.4,51.8z"/>
</svg>