<svg xmlns="http://www.w3.org/2000/svg" xmlns:xlink="http://www.w3.org/1999/xlink" xmlns:serif="http://www.serif.com/" viewBox="0 0 32 40" version="1.1" xml:space="preserve" style="" x="0px" y="0px" fill-rule="evenodd" clip-rule="evenodd" stroke-linejoin="round" stroke-miterlimit="1.41421">
    <path serif:id="left down corner" d="M0,0l0,32l32,0l0,-32l-32,0Z" style="" fill="none"/>
    <path fill="currentColor" d="M9.917,23.01c-0.464,-0.047 -0.862,-0.405 -0.925,-0.864c-0.009,-0.06 -0.008,-0.076 -0.01,-0.136l0,-12.036c0.002,-0.061 0.001,-0.076 0.01,-0.137c0.091,-0.665 0.97,-1.107 1.572,-0.682c0.223,0.158 0.377,0.411 0.415,0.682c0.008,0.061 0.007,0.076 0.009,0.137l0,11.033l11.033,0l0.068,0.002c0.061,0.006 0.076,0.006 0.136,0.019c0.557,0.115 0.936,0.768 0.741,1.317c-0.122,0.344 -0.446,0.608 -0.809,0.658c-0.06,0.008 -0.075,0.007 -0.136,0.01l-12.036,0c-0.023,-0.001 -0.045,-0.002 -0.068,-0.003Z" style="" fill-rule="nonzero"/>
    <text x="0" y="47" fill="#000000" font-size="5px" font-weight="bold" font-family="'Helvetica Neue', Helvetica, Arial-Unicode, Arial, Sans-serif">Created by Bombasticon Studio</text><text x="0" y="52" fill="#000000" font-size="5px" font-weight="bold" font-family="'Helvetica Neue', Helvetica, Arial-Unicode, Arial, Sans-serif">from the Noun Project</text>
</svg>