<svg height="404pt" viewBox="-3 0 404 404" width="404pt" xmlns="http://www.w3.org/2000/svg">
    <path fill="currentColor" d="m387.816406 0h-87.269531c-5.523437 0-10 4.476562-10 10v38h-42.910156c-22.082031.023438-39.976563 17.917969-40 40v63.453125h-30.546875c-5.523438 0-10 4.476563-10 10v30.546875h-59.816406v-38c0-5.523438-4.476563-10-10-10h-87.273438c-5.523438 0-10 4.476562-10 10v96c0 5.523438 4.476562 10 10 10h87.273438c5.523437 0 10-4.476562 10-10v-38h59.816406v30.546875c0 5.523437 4.476562 10 10 10h30.546875v63.453125c.023437 22.082031 17.917969 39.976562 40 40h42.910156v38c0 5.523438 4.476563 10 10 10h87.269531c5.523438 0 10-4.476562 10-10v-96c0-5.523438-4.476562-10-10-10h-87.269531c-5.523437 0-10 4.476562-10 10v38h-42.910156c-11.042969-.011719-19.988281-8.960938-20-20v-63.453125h26.179687c5.523438 0 10-4.476563 10-10v-81.09375c0-5.523437-4.476562-10-10-10h-26.179687v-63.453125c.011719-11.039062 8.957031-19.988281 20-20h42.910156v38c0 5.523438 4.476563 10 10 10h87.269531c5.523438 0 10-4.476562 10-10v-96c0-5.523438-4.476562-10-10-10zm0 0"/>
</svg>