<?xml version="1.0" encoding="iso-8859-1"?>
<!-- Generator: Adobe Illustrator 19.0.0, SVG Export Plug-In . SVG Version: 6.00 Build 0)  -->
<svg version="1.1" id="Capa_1" xmlns="http://www.w3.org/2000/svg" xmlns:xlink="http://www.w3.org/1999/xlink" x="0px" y="0px"
     viewBox="0 0 512 512" style="enable-background:new 0 0 512 512;" xml:space="preserve">
<g>
	<g>
		<polygon fill="currentColor" points="256,211.233 221.848,271 290.152,271 		"/>
	</g>
</g>
    <g>
	<g>
		<path fill="currentColor" d="M271,301v104.252c10.343-1.032,20.379-3.119,30-6.152V301H271z"/>
	</g>
</g>
    <g>
	<g>
		<path fill="currentColor" d="M211,301v98.101c9.621,3.032,19.657,5.12,30,6.152V301H211z"/>
	</g>
</g>
    <g>
	<g>
		<path fill="currentColor" d="M256,106c-82.71,0-150,67.29-150,150c0,55.407,30.199,103.89,75,129.864V282.017l75-131.25l75,131.25v103.848
			c44.801-25.974,75-74.457,75-129.864C406,173.29,338.71,106,256,106z"/>
	</g>
</g>
    <g>
	<g>
		<path fill="currentColor" d="M512,307.261V204.739l-39.919-11.604c-4.588-15.803-10.901-31.037-18.842-45.466l20.027-36.442l-72.493-72.494
			L364.33,58.761c-14.43-7.941-29.663-14.254-45.466-18.843L307.261,0H204.739l-11.604,39.918
			C177.333,44.506,162.1,50.82,147.67,58.761l-36.443-20.027l-72.493,72.494l20.027,36.442c-7.94,14.43-14.254,29.664-18.843,45.466
			L0,204.74v102.521l39.918,11.604c4.588,15.802,10.902,31.036,18.843,45.466l-20.027,36.442l72.493,72.493l36.442-20.026
			c14.431,7.941,29.664,14.254,45.467,18.843L204.739,512H307.26l11.604-39.918c15.803-4.588,31.036-10.902,45.467-18.843
			l36.442,20.026l72.493-72.493l-20.027-36.442c7.941-14.429,14.254-29.663,18.842-45.466L512,307.261z M256,436
			c-99.252,0-180-80.748-180-180S156.748,76,256,76s180,80.748,180,180S355.252,436,256,436z"/>
	</g>
</g>
    <g>
</g>
    <g>
</g>
    <g>
</g>
    <g>
</g>
    <g>
</g>
    <g>
</g>
    <g>
</g>
    <g>
</g>
    <g>
</g>
    <g>
</g>
    <g>
</g>
    <g>
</g>
    <g>
</g>
    <g>
</g>
    <g>
</g>
</svg>
