<svg xmlns="http://www.w3.org/2000/svg" xmlns:xlink="http://www.w3.org/1999/xlink" version="1.1" x="0px" y="0px" viewBox="0 0 512 640" style="enable-background:new 0 0 512 512;" xml:space="preserve"><g><g>
    <path fill="currentColor" d="M268.017,462.805c-58.764,0-114.011-22.884-155.564-64.437c-41.552-41.553-64.437-96.8-64.437-155.563    c0-79.794,43.364-153.498,113.17-192.347c3.864-2.151,8.686-1.507,11.85,1.583c3.165,3.091,3.923,7.894,1.864,11.81    c-14.97,28.462-22.883,60.605-22.883,92.954c0,110.28,89.72,200,200,200c33.988,0,67.566-8.689,97.104-25.129    c3.866-2.15,8.685-1.506,11.851,1.584c3.164,3.091,3.923,7.894,1.863,11.81C424.638,417.691,349.988,462.805,268.017,462.805z     M143.645,86.181c-47.293,37.61-75.629,95.129-75.629,156.624c0,110.28,89.72,200,200,200c63.464,0,122.104-29.75,159.557-79.36    c-24.095,8.793-49.721,13.36-75.557,13.36c-58.765,0-114.011-22.884-155.564-64.437c-41.552-41.553-64.437-96.799-64.437-155.563    C132.016,132.771,135.989,108.837,143.645,86.181z"/></g></g>
</svg>