<svg fill="currentColor" xmlns="http://www.w3.org/2000/svg" xmlns:xlink="http://www.w3.org/1999/xlink" version="1.1" x="0px" y="0px" viewBox="0 0 29.893 26.23875" style="enable-background:new 0 0 29.893 20.991;" xml:space="preserve"><g>
    <path d="M17.855,11.315c0.081-0.273,0.138-0.558,0.138-0.857c0-1.683-1.364-3.048-3.048-3.048c-0.292,0-0.569,0.055-0.837,0.131   L7.062,0.443C6.478-0.146,5.528-0.147,4.94,0.436C4.353,1.02,4.35,1.969,4.933,2.557l7.077,7.128   c-0.065,0.249-0.111,0.505-0.111,0.773c0,1.682,1.364,3.047,3.047,3.047c0.262,0,0.511-0.043,0.753-0.104l7.097,7.147   c0.294,0.296,0.68,0.443,1.064,0.443c0.383,0,0.765-0.146,1.057-0.436c0.588-0.584,0.592-1.533,0.008-2.121L17.855,11.315z"/>
    <path d="M15.409,16.424c-0.202,0.024-0.407,0.04-0.615,0.04c-0.771,0-1.505-0.174-2.171-0.483   c-2.154-0.907-3.667-3.038-3.667-5.522c0-0.525,0.074-1.032,0.201-1.518L5.635,5.393C2.094,7.653,0,10.419,0,10.419   s7.521,10.122,18.209,7.638l-1.79-1.803C16.092,16.337,15.756,16.397,15.409,16.424z"/>
    <path d="M11.588,2.873l1.795,1.808c0.498-0.135,1.021-0.213,1.563-0.213c3.309,0,5.99,2.682,5.99,5.99   c0,0.558-0.08,1.095-0.223,1.606l3.376,3.4c1.879-1.224,3.818-2.867,5.804-5.046C23.004,2.975,16.651,1.769,11.588,2.873z"/></g>
</svg>