<svg height="512pt" viewBox="0 0 512 512.00103" width="512pt" xmlns="http://www.w3.org/2000/svg"><path fill="currentColor" d="m504.730469 240.570312-70.703125-58.3125 8.761718-91.226562c1.203126-12.503906-9.308593-23.019531-21.820312-21.820312l-91.226562 8.761718-58.3125-70.703125c-7.992188-9.691406-22.863282-9.695312-30.859376 0l-58.308593 70.707031-91.230469-8.765624c-12.503906-1.199219-23.023438 9.3125-21.820312 21.820312l8.765624 91.230469-70.707031 58.308593c-9.691406 7.996094-9.695312 22.863282 0 30.859376l70.703125 58.3125-8.761718 91.226562c-1.199219 12.507812 9.3125 23.019531 21.820312 21.820312l91.230469-8.761718 58.308593 70.703125c7.996094 9.691406 22.867188 9.695312 30.859376 0l58.3125-70.703125 91.226562 8.761718c12.507812 1.199219 23.023438-9.3125 21.820312-21.820312l-8.761718-91.226562 70.703125-58.3125c9.695312-7.996094 9.695312-22.863282 0-30.859376zm-104.351563 65.074219c-5.128906 4.226563-7.820312 10.726563-7.183594 17.339844l7.457032 77.667969-77.664063-7.460938c-6.613281-.632812-13.117187 2.058594-17.34375 7.183594l-49.644531 60.195312-49.644531-60.195312c-3.816407-4.628906-9.488281-7.273438-15.425781-7.273438-.636719 0-1.273438.03125-1.914063.09375l-77.667969 7.460938 7.460938-77.667969c.632812-6.617187-2.058594-13.113281-7.183594-17.34375l-60.191406-49.644531 60.191406-49.644531c5.128906-4.226563 7.820312-10.726563 7.183594-17.339844l-7.460938-77.667969 77.667969 7.460938c6.613281.636718 13.113281-2.058594 17.34375-7.183594l49.644531-60.195312 49.640625 60.195312c4.230469 5.125 10.734375 7.816406 17.34375 7.183594l77.667969-7.460938-7.460938 77.667969c-.636718 6.613281 2.058594 13.113281 7.183594 17.339844l60.195313 49.644531zm-44.132812-126.039062c8.179687 7.421875 8.792968 20.070312 1.371094 28.25l-111.765626 123.167969c-7.414062 8.175781-20.082031 8.808593-28.273437 1.351562l-61.847656-56.308594c-8.164063-7.433594-8.761719-20.082031-1.324219-28.25 7.4375-8.167968 20.085938-8.761718 28.253906-1.328125l47.03125 42.820313 98.304688-108.332032c7.421875-8.183593 20.070312-8.792968 28.25-1.371093zm0 0"/></svg>