<svg width="36" height="36" xmlns="http://www.w3.org/2000/svg" viewBox="0 0 81.47 93.75" x="0px" y="0px"><title>Asset 16</title><g data-name="Layer 2"><g data-name="Layer 1">
    <path fill="currentColor" d="M60.51,12H12.14v6H60.51a3,3,0,0,1,3,3V65.29h6V21A9,9,0,0,0,60.51,12Z"/>
    <path fill="currentColor" d="M72.47,0H24.11V6H72.47a3,3,0,0,1,3,3V53.29h6V9A9,9,0,0,0,72.47,0Z"/>
    <path fill="currentColor" d="M50.59,25H6a6,6,0,0,0-6,6V69a6,6,0,0,0,6,6H50.59a6,6,0,0,0,6-6V31A6,6,0,0,0,50.59,25ZM28.66,59.83a7.8,7.8,0,0,1-11,0L11.1,53.29l4.24-4.24,6.54,6.54a1.8,1.8,0,0,0,2.54,0L41.24,38.77,45.48,43Z"/>
</g></g>
</svg>