<svg xmlns="http://www.w3.org/2000/svg" xmlns:xlink="http://www.w3.org/1999/xlink" version="1.1" x="0px" y="0px" viewBox="0 0 100 125" style="enable-background:new 0 0 100 100;" xml:space="preserve">
    <path fill="currentColor" d="M89.9,2.6H41.7c-4.2,0-7.5,3.4-7.5,7.5v8.3h-8.3c-4.2,0-7.5,3.4-7.5,7.5v8.3h-8.3c-4.2,0-7.5,3.4-7.5,7.5v48.2  c0,4.2,3.4,7.5,7.5,7.5h48.2c4.2,0,7.5-3.4,7.5-7.5v-8.3h8.3c4.2,0,7.5-3.4,7.5-7.5v-8.3h8.3c4.2,0,7.5-3.4,7.5-7.5V10.1  C97.4,5.9,94,2.6,89.9,2.6z M61.2,89.9c0,1.7-1.4,3-3,3H10.1c-1.7,0-3-1.4-3-3V41.7c0-1.7,1.4-3,3-3h8.3h39.9c1.7,0,3,1.4,3,3v39.9  V89.9z M77.1,74.1c0,1.7-1.4,3-3,3h-8.3V41.7c0-4.2-3.4-7.5-7.5-7.5H22.9v-8.3c0-1.7,1.4-3,3-3h8.3h39.9c1.7,0,3,1.4,3,3v39.9V74.1z   M92.9,58.3c0,1.7-1.4,3-3,3h-8.3V25.9c0-4.2-3.4-7.5-7.5-7.5H38.7v-8.3c0-1.7,1.4-3,3-3h48.2c1.7,0,3,1.4,3,3V58.3z"/>
</svg>