<svg id="Capa_1" enable-background="new 0 0 512 512" viewBox="0 0 512 512" xmlns="http://www.w3.org/2000/svg"><g><g><g>
    <path fill="currentColor" d="m497 512h-482c-8.284 0-15-6.716-15-15v-482c0-8.284 6.716-15 15-15h482c8.284 0 15 6.716 15 15v482c0 8.284-6.716 15-15 15zm-467-30h452v-452h-452z"/></g></g><g><g>
    <path fill="currentColor" d="m288.613 391.496c-.001 0-.002 0-.004 0l-65.258-.016c-6.222-.002-11.797-3.844-14.013-9.657l-91.855-240.977c-1.757-4.61-1.135-9.79 1.664-13.854 2.799-4.062 7.418-6.489 12.352-6.489h64.25c6.223 0 11.799 3.842 14.016 9.657l46.235 121.28 46.234-121.279c2.216-5.815 7.793-9.657 14.016-9.657h64.25c4.935 0 9.553 2.427 12.353 6.49 2.799 4.063 3.421 9.243 1.663 13.854l-91.887 240.992c-2.217 5.814-7.794 9.656-14.016 9.656zm-54.922-30.013 44.589.01 80.447-210.989h-32.143l-56.569 148.389c-2.216 5.815-7.793 9.657-14.016 9.657s-11.799-3.842-14.016-9.657l-56.568-148.389h-32.145z"/></g></g></g>
</svg>