<?xml version="1.0" encoding="utf-8"?>
<!-- Svg Vector Icons : http://www.onlinewebfonts.com/icon -->
<!DOCTYPE svg PUBLIC "-//W3C//DTD SVG 1.1//EN" "http://www.w3.org/Graphics/SVG/1.1/DTD/svg11.dtd">
<svg version="1.1" xmlns="http://www.w3.org/2000/svg" xmlns:xlink="http://www.w3.org/1999/xlink" x="0px" y="0px" viewBox="0 0 1000 1000" enable-background="new 0 0 1000 1000" xml:space="preserve">
<metadata> Svg Vector Icons : http://www.onlinewebfonts.com/icon </metadata>
<g><path fill="currentColor" d="M500,10C229.3,10,10,229.3,10,500s219.3,490,490,490c270.7,0,490-219.3,490-490S770.7,10,500,10z M500,894.7c-217.4,0-394.7-177.3-394.7-394.7c0-217.4,177.3-394.7,394.7-394.7c217.4,0,394.7,177.3,394.7,394.7C894.7,717.4,717.4,894.7,500,894.7z"/><path fill="currentColor" d="M690.7,297.9c-19.1-17.2-49.6-17.2-66.7,1.9L500,429.5L378,297.9c-17.2-19.1-47.7-21-66.7-1.9c-19.1,17.2-21,47.7-1.9,66.7l127.7,135.4L309.3,633.5c-17.2,19.1-17.2,49.6,1.9,66.7c9.5,9.5,21,13.3,32.4,13.3c13.3,0,24.8-5.7,34.3-15.3l122-131.6l122,131.6c9.5,9.5,22.9,15.3,34.3,15.3c11.4,0,22.9-3.8,32.4-13.3c19.1-17.2,21-47.7,1.9-66.7L564.8,500l127.7-135.4C709.7,345.6,709.7,315.1,690.7,297.9z"/></g>
</svg>