<svg fill="currentColor" xmlns="http://www.w3.org/2000/svg" xmlns:xlink="http://www.w3.org/1999/xlink" version="1.1" x="0px" y="0px" viewBox="0 0 50 62.5" enable-background="new 0 0 50 50" xml:space="preserve"><path d="M45.987,21.5H25.259c-1.522-5.262-6.375-9.125-12.121-9.125C6.176,12.375,0.513,18.039,0.513,25  c0,6.962,5.664,12.625,12.625,12.625c5.746,0,10.599-3.862,12.121-9.125h9.015v1.176c0,1.933,1.567,3.5,3.5,3.5s3.5-1.567,3.5-3.5  V28.5h1.214v3.572c0,1.933,1.567,3.5,3.5,3.5s3.5-1.567,3.5-3.5V25C49.487,23.067,47.92,21.5,45.987,21.5z M13.138,30.625  c-3.102,0-5.625-2.523-5.625-5.625s2.523-5.625,5.625-5.625s5.625,2.523,5.625,5.625S16.239,30.625,13.138,30.625z"/>
</svg>