<svg height="448pt" viewBox="0 -4 448 447" width="448pt" xmlns="http://www.w3.org/2000/svg">
    <path fill="currentColor" d="m368 48.5c0-26.507812-82.378906-48-184-48s-184 21.492188-184 48 82.378906 48 184 48 184-21.492188 184-48zm0 0"/>
    <path fill="currentColor" d="m374.167969 251.085938c-3.597657-.863282-7.246094-1.507813-10.921875-1.9375-50.042969-5.84375-96.097656 27.972656-105.511719 77.472656-1.144531 5.890625-1.726563 11.878906-1.734375 17.878906.003906 50.128906 38.578125 91.816406 88.558594 95.699219 49.976562 3.886719 94.53125-31.335938 102.285156-80.859375 7.753906-49.527344-23.902344-96.679688-72.675781-108.253906zm-40.511719 147.070312c-3.125 3.121094-8.1875 3.121094-11.3125 0l-45.253906-45.257812c-3.035156-3.136719-2.992188-8.128907.09375-11.214844 3.085937-3.085938 8.078125-3.128906 11.214844-.09375l39.601562 39.597656 84.847656-84.855469c3.125-3.125 8.195313-3.125 11.320313 0s3.125 8.195313 0 11.320313zm0 0"/>
    <path fill="currentColor" d="m0 384.5c0 20.039062 70 48 184 48 30.4375.121094 60.835938-2.140625 90.921875-6.761719-1.546875-1.460937-2.929687-3.0625-4.386719-4.597656-.894531-.953125-1.839844-1.855469-2.695312-2.839844-2.773438-3.136719-5.363282-6.421875-7.769532-9.847656-.183593-.265625-.328124-.554687-.511718-.800781-2.167969-3.183594-4.171875-6.472656-6.007813-9.855469-.648437-1.207031-1.207031-2.464844-1.816406-3.6875-1.246094-2.539063-2.398437-5.089844-3.496094-7.707031-.582031-1.4375-1.109375-2.902344-1.597656-4.367188-.902344-2.542968-1.703125-5.117187-2.402344-7.71875-.414062-1.503906-.796875-2.992187-1.183593-4.511718-.648438-2.800782-1.144532-5.601563-1.597657-8.496094-.199219-1.34375-.464843-2.671875-.625-4-.519531-4.25-.796875-8.527344-.832031-12.808594 0-3.484375.164062-6.949219.496094-10.398438-4.992188.4375-10.121094.671876-15.199219.992188-3.304687.207031-6.542969.476562-9.871094.636719-10.402343.488281-20.859375.800781-31.433593.800781-4.113282 0-8.230469-.054688-12.351563-.136719l-2.992187-.0625c-4.089844-.097656-8.171876-.230469-12.25-.398437l-.949219-.050782c-3.824219-.175781-7.636719-.382812-11.441407-.621093l-2.992187-.203125c-4-.269532-8-.566406-12-.917969l-1.457031-.136719c-3.589844-.324218-7.152344-.683594-10.695313-1.070312l-2.910156-.320313c-3.863281-.449219-7.691406-.925781-11.488281-1.433593l-1.984375-.28125c-3.304688-.460938-6.558594-.957032-9.792969-1.476563-.894531-.144531-1.800781-.28125-2.6875-.433594-3.660156-.609375-7.261719-1.25-10.808594-1.929687l-2.128906-.421875c-3.039062-.597657-6.03125-1.226563-8.972656-1.890625-.800782-.175782-1.601563-.34375-2.402344-.527344-3.375-.765625-6.675781-1.566406-9.894531-2.398438-.722657-.183593-1.425781-.382812-2.144531-.578124-2.738282-.742188-5.402344-1.503907-8-2.285157l-2.023438-.609375c-3.007812-.933594-5.921875-1.902344-8.746094-2.910156l-1.976562-.730469c-2.414063-.882812-4.757813-1.800781-7.03125-2.742187l-1.472656-.679688c-2.574219-1.105468-5.03125-2.242187-7.390626-3.410156l-1.671874-.863281c-2.046876-1.054688-4-2.136719-5.878907-3.238281-.328125-.203126-.6875-.394532-1.015625-.59375-2.066406-1.273438-4-2.574219-5.792968-3.910157-.183594-.144531-.425782-.273437-.6093755-.417969zm0 0"/>
    <path fill="currentColor" d="m0 272.5c0 20.039062 70 48 184 48 10.617188 0 21.144531-.289062 31.550781-.800781 3.433594-.167969 6.769531-.488281 10.167969-.710938 5.90625-.382812 11.785156-.800781 17.601562-1.359375.152344-.625.367188-1.21875.527344-1.832031.398438-1.511719.839844-3 1.304688-4.480469.464844-1.480468 1-3.199218 1.601562-4.738281.597656-1.535156 1.09375-2.925781 1.679688-4.375.582031-1.445313 1.253906-3 1.925781-4.472656.671875-1.46875 1.335937-2.824219 2.046875-4.214844.714844-1.390625 1.488281-2.832031 2.273438-4.214844.785156-1.386719 1.601562-2.695312 2.398437-4 .800781-1.304687 1.714844-2.671875 2.609375-4 .898438-1.328125 1.761719-2.535156 2.6875-3.777343.929688-1.238282 1.9375-2.503907 2.9375-3.734376 1-1.234374 1.953125-2.402343 2.976562-3.519531 1.023438-1.121093 2.144532-2.335937 3.246094-3.480469 1.105469-1.144531 2.121094-2.191406 3.199219-3.242187 1.082031-1.046875 2.402344-2.160156 3.570313-3.199219 1.167968-1.039062 2.261718-1.992187 3.4375-2.9375 1.179687-.941406 2.5625-1.972656 3.867187-2.933594 1.300781-.960937 2.398437-1.785156 3.613281-2.617187 1.371094-.925781 2.769532-1.773437 4.175782-2.640625 1.25-.796875 2.488281-1.597656 3.769531-2.285156 1.464843-.800782 2.96875-1.601563 4.464843-2.320313 1.296876-.65625 2.566407-1.335937 3.886719-1.9375 1.601563-.71875 3.199219-1.34375 4.800781-1.992187 1.3125-.527344 2.601563-1.085938 3.9375-1.597656 1.6875-.609376 3.414063-1.105469 5.125-1.601563 1.3125-.398437 2.609376-.847656 3.9375-1.199219 1.824219-.488281 3.6875-.847656 5.542969-1.25 1.273438-.261718 2.519531-.589844 3.808594-.800781 2.082031-.367187 4.199219-.597656 6.320313-.847656 1.097656-.125 2.175781-.328125 3.28125-.421875 3.199218-.28125 6.511718-.433594 9.816406-.433594 3.914062.023438 7.824218.25 11.71875.679688.800781.082031 1.550781.152343 2.328125.25.648437.078124 1.304687.117187 1.953125.207031v-46.816407c-.1875.144532-.425782.273438-.609375.417969-1.816407 1.335938-3.726563 2.636719-5.792969 3.910157-.328125.199218-.6875.390624-1.015625.59375-1.863281 1.101562-3.832031 2.183593-5.878906 3.238281l-1.671875.863281c-2.359375 1.167969-4.800782 2.304688-7.394532 3.410156l-1.527343.621094c-2.269531.945312-4.613281 1.859375-7.03125 2.746094l-1.976563.726562c-2.824218 1.003906-5.742187 1.972656-8.742187 2.914063l-2.023438.605469c-2.617187.800781-5.28125 1.546874-8 2.289062-.722656.191406-1.425781.390625-2.144531.578125-3.203125.847656-6.5 1.644531-9.898438 2.398437-.796874.183594-1.597656.351563-2.398437.527344-2.945313.65625-5.9375 1.285156-8.976563 1.886719l-2.128906.425781c-3.539062.683594-7.144531 1.324219-10.808594 1.929688-.886718.152344-1.789062.285156-2.6875.429687-3.199218.519531-6.488281 1.015625-9.789062 1.480469l-1.976562.28125c-3.792969.53125-7.621094 1.007812-11.488282 1.429688l-2.914062.320312c-3.539063.386719-7.105469.742188-10.695313 1.074219l-1.457031.136719c-4 .351562-8 .644531-12 .917968l-3.0625.222656c-3.808594.242188-7.621094.449219-11.441406.625l-.949219.046876c-4.082031.175781-8.164063.3125-12.25.402343l-2.992187.0625c-4.121094.082031-8.238282.136719-12.351563.136719s-8.230469-.054688-12.351563-.136719l-2.992187-.0625c-4.089844-.097656-8.171875-.230469-12.246094-.402343l-.953125-.046876c-3.824218-.175781-7.636718-.382812-11.441406-.625l-2.992188-.199218c-4-.269532-8-.566406-12-.917969l-1.453124-.136719c-3.589844-.324218-7.15625-.683594-10.699219-1.074218l-2.910157-.320313c-3.863281-.445313-7.691406-.921875-11.488281-1.429687l-2.007812-.25c-3.304688-.460938-6.558594-.957032-9.792969-1.476563-.894531-.144531-1.800781-.28125-2.6875-.433594-3.660156-.609375-7.261719-1.25-10.808594-1.929687l-2.128906-.421875c-3.039062-.601563-6.03125-1.234375-8.972656-1.890625-.800782-.175782-1.601563-.34375-2.402344-.527344-3.375-.765625-6.675781-1.566406-9.894531-2.398438-.722657-.183593-1.425781-.382812-2.144531-.578124-2.738282-.742188-5.402344-1.503907-8-2.285157l-2.023438-.609375c-3.007812-.9375-5.921875-1.910156-8.746094-2.910156l-1.976562-.730469c-2.414063-.882812-4.757813-1.800781-7.03125-2.742187l-1.472656-.679688c-2.574219-1.105468-5.03125-2.242187-7.390626-3.410156l-1.671874-.863281c-2.046876-1.054688-4-2.136719-5.878907-3.238281-.328125-.203126-.6875-.394532-1.015625-.59375-2.066406-1.273438-4-2.574219-5.792968-3.910157-.183594-.144531-.425782-.273437-.6093755-.417969zm0 0"/>
    <path fill="currentColor" d="m0 160.5c0 20 70 48 184 48s184-28 184-48v-85.648438c-.183594.144532-.425781.273438-.609375.417969-1.816406 1.335938-3.726563 2.636719-5.789063 3.910157-.328124.199218-.691406.390624-1.015624.59375-1.867188 1.101562-3.832032 2.183593-5.882813 3.199218l-1.671875.863282c-2.359375 1.167968-4.800781 2.304687-7.390625 3.40625l-1.527344.625c-2.273437.945312-4.617187 1.859374-7.035156 2.746093l-1.972656.726563c-2.828125 1.003906-5.742188 1.972656-8.746094 2.914062l-2.023437.605469c-2.617188.800781-5.28125 1.542969-8 2.289063-.71875.191406-1.425782.390624-2.144532.574218-3.199218.847656-6.5 1.648438-9.894531 2.402344-.800781.183594-1.601563.351562-2.402344.527344-2.941406.65625-5.933593 1.285156-8.972656 1.886718l-2.128906.425782c-3.542969.683594-7.144531 1.324218-10.808594 1.925781-.886719.152344-1.792969.289063-2.6875.433594-3.199219.519531-6.488281 1.015625-9.792969 1.480469l-1.976562.28125c-3.792969.53125-7.621094 1.007812-11.488282 1.429687l-2.910156.320313c-3.542968.382812-7.109375.742187-10.695312 1.070312l-1.457032.136719c-4 .351562-8 .648437-12 .921875l-2.976562.261718c-3.808594.242188-7.621094.449219-11.441406.625l-.949219.046876c-4.082031.175781-8.164063.3125-12.25.402343l-2.992187.0625c-4.121094.082031-8.238282.136719-12.351563.136719s-8.230469-.054688-12.351563-.136719l-2.992187-.0625c-4.089844-.097656-8.171875-.230469-12.246094-.402343l-.953125-.046876c-3.824218-.175781-7.636718-.382812-11.441406-.625l-2.992188-.199218c-4-.269532-8-.566406-12-.917969l-1.453124-.136719c-3.589844-.324218-7.15625-.683594-10.699219-1.074218l-2.910157-.320313c-3.863281-.445313-7.691406-.921875-11.488281-1.429687l-2.007812-.25c-3.304688-.460938-6.558594-.957032-9.792969-1.476563-.894531-.144531-1.800781-.28125-2.6875-.433594-3.660156-.609375-7.261719-1.25-10.808594-1.929687l-2.128906-.421875c-3.039062-.601563-6.03125-1.234375-8.972656-1.890625-.800782-.175782-1.601563-.34375-2.402344-.527344-3.375-.765625-6.675781-1.566406-9.894531-2.398438-.722657-.183593-1.425781-.382812-2.144531-.578124-2.738282-.742188-5.402344-1.503907-8-2.285157l-2.023438-.609375c-3.007812-.9375-5.921875-1.910156-8.746094-2.910156l-1.976562-.730469c-2.414063-.882812-4.757813-1.800781-7.03125-2.742187l-1.472656-.679688c-2.574219-1.105468-5.03125-2.242187-7.390626-3.410156l-1.671874-.863281c-2.046876-1.054688-4-2.136719-5.878907-3.199219-.328125-.199219-.6875-.390625-1.015625-.59375-2.066406-1.269531-4-2.574219-5.792968-3.910156-.183594-.144532-.425782-.273438-.6093755-.417969zm0 0"/></svg>