<svg height="448pt" viewBox="0 -4 448 447" width="448pt" xmlns="http://www.w3.org/2000/svg">
    <path fill="currentColor" d="m368 48.5c0-26.507812-82.378906-48-184-48s-184 21.492188-184 48 82.378906 48 184 48 184-21.492188 184-48zm0 0"/>
    <path fill="currentColor" d="m374.167969 251.085938c-3.597657-.863282-7.246094-1.507813-10.921875-1.9375-50.042969-5.84375-96.097656 27.972656-105.511719 77.472656-1.144531 5.890625-1.726563 11.878906-1.734375 17.878906.003906 50.128906 38.578125 91.816406 88.558594 95.699219 49.976562 3.886719 94.53125-31.335938 102.285156-80.859375 7.753906-49.527344-23.902344-96.679688-72.675781-108.253906zm34.398437 138.671874c2.082032 2.007813 2.914063 4.980469 2.183594 7.777344-.734375 2.796875-2.917969 4.980469-5.714844 5.714844-2.796875.730469-5.769531-.101562-7.777344-2.183594l-45.257812-45.253906-45.257812 45.253906c-3.136719 3.035156-8.125 2.988282-11.210938-.097656s-3.132812-8.074219-.097656-11.210938l45.253906-45.257812-45.253906-45.257812c-3.035156-3.136719-2.988282-8.125.097656-11.210938s8.074219-3.132812 11.210938-.097656l45.257812 45.253906 45.257812-45.253906c3.136719-3.035156 8.125-2.988282 11.210938.097656s3.132812 8.074219.097656 11.210938l-45.253906 45.257812zm0 0"/>
    <path fill="currentColor" d="m0 160.5c0 20 70 48 184 48s184-28 184-48v-85.648438c-.191406.144532-.425781.28125-.617188.417969-1.808593 1.335938-3.71875 2.636719-5.78125 3.910157-.328124.199218-.699218.390624-1.035156.59375-1.855468 1.109374-3.804687 2.183593-5.855468 3.199218l-1.6875.863282c-2.351563 1.167968-4.800782 2.304687-7.375 3.398437l-1.601563.640625c-2.25.933594-4.574219 1.84375-6.976563 2.730469-.671874.246093-1.335937.496093-2.015624.734375-2.816407 1.007812-5.71875 1.976562-8.710938 2.902344-.679688.21875-1.382812.417968-2.078125.625-2.589844.78125-5.230469 1.535156-7.929687 2.265624-.742188.199219-1.472657.40625-2.214844.597657-3.199219.839843-6.496094 1.648437-9.839844 2.402343l-2.449219.535157c-2.902343.652343-5.855469 1.273437-8.863281 1.863281l-2.214844.449219c-3.53125.671875-7.117187 1.3125-10.753906 1.917969l-2.769531.441406c-3.199219.535156-6.421875 1.019531-9.671875 1.457031l-2.070313.296875c-3.769531.511719-7.59375.980469-11.441406 1.421875l-2.96875.328125c-3.507813.382812-7.046875.738281-10.613281 1.0625l-1.519532.144531c-3.96875.34375-7.96875.648438-12 .921875l-2.945312.253906c-3.785156.242188-7.582031.449219-11.382812.625l-.992188.046876c-4.074219.175781-8.15625.3125-12.242188.402343l-2.992187.0625c-4.117187.082031-8.246094.136719-12.351563.136719-4.101562 0-8.230468-.054688-12.351562-.136719l-2.992188-.0625c-4.089843-.097656-8.171874-.230469-12.238281-.402343l-.992187-.046876c-3.808594-.175781-7.601563-.382812-11.386719-.625l-3.03125-.199218c-4.015625-.269532-8.015625-.578125-12-.917969l-1.519531-.144531c-3.566406-.320313-7.09375-.679688-10.605469-1.066406l-2.984375-.328126c-3.839844-.4375-7.664062-.910156-11.433594-1.421874l-2.070312-.296876c-3.253906-.457031-6.480469-.945312-9.671875-1.457031l-2.761719-.4375c-3.636719-.609375-7.222656-1.25-10.753906-1.921875l-2.214844-.445312c-2.996094-.59375-5.953125-1.214844-8.863281-1.867188l-2.449219-.535156c-3.34375-.800781-6.628906-1.597656-9.839844-2.398438-.742187-.191406-1.472656-.402343-2.214844-.601562-2.703124-.730469-5.347656-1.484375-7.929687-2.261719-.695313-.210937-1.398437-.410156-2.078125-.625-2.992188-.929687-5.894531-1.898437-8.710938-2.90625-.679687-.238281-1.34375-.488281-2.015624-.734375-2.402344-.886718-4.726563-1.792968-6.976563-2.726562l-1.601563-.640625c-2.574218-1.097657-5.023437-2.234375-7.375-3.402344l-1.6875-.863281c-2.050781-1.054688-4-2.128906-5.855468-3.199219-.335938-.199219-.707032-.390625-1.035156-.59375-2.0625-1.261719-4-2.574219-5.78125-3.902344-.191407-.144531-.425782-.28125-.617188-.425781zm0 0"/>
    <path fill="currentColor" d="m0 384.5c0 20.039062 70 48 184 48 30.4375.121094 60.835938-2.140625 90.921875-6.761719-1.523437-1.445312-2.890625-3.023437-4.328125-4.542969-.914062-.976562-1.890625-1.902343-2.769531-2.910156-2.761719-3.113281-5.347657-6.382812-7.746094-9.785156-.207031-.296875-.367187-.617188-.566406-.921875-2.152344-3.144531-4.140625-6.402344-5.953125-9.757813-.65625-1.214843-1.214844-2.480468-1.832032-3.71875-1.246093-2.523437-2.398437-5.066406-3.488281-7.671874-.582031-1.449219-1.109375-2.914063-1.597656-4.386719-.90625-2.542969-1.710937-5.101563-2.402344-7.710938-.414062-1.496093-.796875-2.992187-1.183593-4.519531-.648438-2.792969-1.144532-5.601562-1.597657-8.488281-.199219-1.34375-.464843-2.671875-.625-4-.519531-4.253907-.800781-8.539063-.832031-12.824219 0-3.484375.164062-6.949219.496094-10.398438-4.992188.4375-10.113282.671876-15.199219.984376-3.304687.207031-6.554687.484374-9.890625.644531-10.398438.488281-20.855469.800781-31.429688.800781-4.105468 0-8.234374-.054688-12.351562-.136719l-2.992188-.0625c-4.089843-.097656-8.171874-.230469-12.242187-.398437l-.992187-.050782c-3.804688-.175781-7.601563-.382812-11.382813-.621093l-3.03125-.203125c-4.015625-.269532-8.015625-.578125-12-.917969l-1.519531-.144531c-3.570313-.320313-7.097656-.679688-10.609375-1.0625l-2.984375-.328125c-3.839844-.441407-7.664063-.914063-11.429688-1.425781l-2.074218-.296876c-3.253907-.453124-6.476563-.9375-9.671876-1.453124l-2.695312-.472657c-3.636719-.609375-7.222656-1.25-10.753906-1.921875l-2.214844-.445312c-2.996094-.59375-5.953125-1.214844-8.863281-1.867188l-2.449219-.535156c-3.34375-.800781-6.628906-1.597656-9.839844-2.398438-.742187-.191406-1.472656-.402343-2.214844-.601562-2.703124-.726562-5.347656-1.480469-7.929687-2.261719-.695313-.210937-1.398437-.410156-2.078125-.625-2.992188-.929687-5.894531-1.898437-8.710938-2.90625-.679687-.238281-1.34375-.488281-2.015624-.734375-2.402344-.890625-4.726563-1.800781-6.976563-2.726562l-1.601563-.640625c-2.574218-1.097657-5.023437-2.234375-7.375-3.402344l-1.6875-.863281c-2.050781-1.054688-4-2.128906-5.855468-3.238282-.335938-.199218-.707032-.394531-1.035156-.59375-2.0625-1.261718-4-2.574218-5.78125-3.902343-.191407-.144531-.425782-.28125-.617188-.425781zm0 0"/>
    <path fill="currentColor" d="m0 272.5c0 20.039062 70 48 184 48 10.617188 0 21.152344-.289062 31.550781-.800781 3.425781-.167969 6.746094-.488281 10.136719-.710938 5.921875-.382812 11.808594-.800781 17.601562-1.359375.152344-.617187.367188-1.207031.527344-1.824218.398438-1.511719.800782-3.007813 1.304688-4.503907.503906-1.496093 1-3.199219 1.597656-4.710937.601562-1.515625 1.097656-2.945313 1.6875-4.402344.59375-1.457031 1.25-2.984375 1.921875-4.449219.671875-1.460937 1.335937-2.839843 2.046875-4.230469.714844-1.390624 1.480469-2.824218 2.273438-4.207031.792968-1.386719 1.597656-2.703125 2.398437-4s1.714844-2.65625 2.601563-4c.886718-1.34375 1.765624-2.5625 2.703124-3.800781s1.921876-2.496094 2.921876-3.710938c1-1.21875 1.957031-2.402343 2.984374-3.546874 1.023438-1.140626 2.132813-2.316407 3.199219-3.453126 1.0625-1.136718 2.128907-2.210937 3.238281-3.265624 1.113282-1.054688 2.34375-2.144532 3.542969-3.199219 1.203125-1.054688 2.273438-2 3.457031-2.953125 1.183594-.949219 2.542969-1.960938 3.839844-2.917969 1.296875-.960937 2.402344-1.792969 3.648438-2.632813 1.25-.839843 2.746094-1.761718 4.136718-2.625 1.265626-.800781 2.511719-1.597656 3.808594-2.296874 1.4375-.796876 2.933594-1.550782 4.414063-2.300782 1.3125-.664062 2.601562-1.34375 3.9375-1.960937 1.550781-.703125 3.144531-1.328125 4.726562-1.96875 1.328125-.535157 2.640625-1.105469 4-1.601563 1.671875-.597656 3.386719-1.09375 5.097657-1.597656 1.320312-.402344 2.625-.855469 4-1.207031 1.808593-.480469 3.664062-.851563 5.511718-1.242188 1.28125-.273437 2.535156-.597656 3.832032-.800781 2.070312-.367188 4.183593-.589844 6.296874-.839844 1.101563-.136718 2.191407-.328125 3.3125-.429687 3.199219-.28125 6.503907-.433594 9.804688-.433594 3.917969.023437 7.828125.25 11.722656.679687.800782.082032 1.558594.152344 2.335938.25.648437.078126 1.304687.117188 1.941406.207032v-46.800782c-.191406.144532-.421875.28125-.613281.417969-1.808594 1.335938-3.722657 2.636719-5.785157 3.910157-.328124.199218-.695312.390624-1.03125.59375-1.855468 1.109374-3.808593 2.183593-5.855468 3.238281l-1.6875.863281c-2.355469 1.167969-4.800782 2.304688-7.378906 3.402344l-1.597657.636718c-2.25.933594-4.578125 1.84375-6.976562 2.730469-.671875.246094-1.335938.496094-2.015625.734375-2.816406 1.007813-5.722656 1.976563-8.714844 2.90625-.679688.214844-1.382812.414063-2.078125.621094-2.585937.78125-5.230469 1.535156-7.929687 2.265625-.742188.199219-1.46875.40625-2.214844.601563-3.199219.839843-6.496094 1.648437-9.839844 2.398437l-2.449219.535156c-2.898437.652344-5.855469 1.273438-8.863281 1.863281l-2.214844.449219c-3.53125.671875-7.113281 1.3125-10.753906 1.921875l-2.765625.4375c-3.199219.535156-6.425781 1.019532-9.671875 1.457032l-2.074219.296874c-3.765625.511719-7.589843.984376-11.4375 1.421876l-2.96875.328124c-3.511719.386719-7.046875.738282-10.617187 1.066407l-1.519532.144531c-3.96875.34375-7.96875.652344-12 .917969l-3.007812.214843c-3.785156.242188-7.582031.449219-11.382812.625l-.992188.046876c-4.074219.175781-8.15625.3125-12.242188.402343l-2.992187.0625c-4.117187.082031-8.246094.136719-12.351563.136719-4.101562 0-8.230468-.054688-12.351562-.136719l-2.992188-.0625c-4.089843-.097656-8.171874-.230469-12.238281-.402343l-.992187-.046876c-3.808594-.175781-7.601563-.382812-11.386719-.625l-3.03125-.199218c-4.015625-.269532-8.015625-.578125-12-.917969l-1.519531-.144531c-3.566406-.320313-7.09375-.679688-10.605469-1.066406l-2.984375-.328126c-3.839844-.4375-7.664062-.910156-11.433594-1.421874l-2.070312-.296876c-3.253906-.453124-6.480469-.9375-9.671875-1.457031l-2.761719-.4375c-3.636719-.609375-7.222656-1.25-10.753906-1.921875l-2.214844-.445312c-2.996094-.59375-5.953125-1.214844-8.863281-1.867188l-2.449219-.535156c-3.34375-.800781-6.628906-1.597656-9.839844-2.398438-.742187-.191406-1.472656-.402343-2.214844-.601562-2.703124-.730469-5.347656-1.484375-7.929687-2.261719-.695313-.210937-1.398437-.410156-2.078125-.625-2.992188-.929687-5.894531-1.898437-8.710938-2.90625-.679687-.238281-1.34375-.488281-2.015624-.734375-2.402344-.886718-4.726563-1.792968-6.976563-2.726562l-1.601563-.640625c-2.574218-1.097657-5.023437-2.234375-7.375-3.402344l-1.6875-.863281c-2.050781-1.054688-4-2.128906-5.855468-3.238282-.335938-.199218-.707032-.394531-1.035156-.59375-2.0625-1.261718-4-2.574218-5.78125-3.902343-.191407-.144531-.425782-.28125-.617188-.425781zm0 0"/></svg>