<?xml version="1.0" encoding="utf-8"?>
<!-- Svg Vector Icons : http://www.onlinewebfonts.com/icon -->
<!DOCTYPE svg PUBLIC "-//W3C//DTD SVG 1.1//EN" "http://www.w3.org/Graphics/SVG/1.1/DTD/svg11.dtd">
<svg version="1.1" xmlns="http://www.w3.org/2000/svg" xmlns:xlink="http://www.w3.org/1999/xlink" x="0px" y="0px" viewBox="0 0 1000 1000" enable-background="new 0 0 1000 1000" xml:space="preserve">
<metadata> Svg Vector Icons : http://www.onlinewebfonts.com/icon </metadata>
<g><path fill="currentColor" d="M554.2,608.4H445.8V10h108.3L554.2,608.4L554.2,608.4z M692,49.3V149c33,18.1,63.6,41,91,68.3c75.6,75.5,117.2,176,117.2,282.8S858.6,707.4,783,783S606.8,900.2,500,900.2c-106.9,0-207.4-41.6-282.9-117.2C141.5,707.4,99.9,607,99.9,500.1s41.6-207.3,117.2-282.8c27.4-27.4,58.3-50.4,91.4-68.5V49.1C133,123.7,10,297.5,10,500.1C10,770.7,229.3,990,500,990c270.6,0,490-219.3,490-489.9C990,297.7,867.1,123.9,692,49.3z"/></g>
</svg>