<?xml version="1.0" encoding="UTF-8"?>
<svg  viewBox="0 0 17 16" version="1.1" xmlns="http://www.w3.org/2000/svg" xmlns:xlink="http://www.w3.org/1999/xlink">
    <title>Combined Shape</title>
    <desc>Created with Sketch.</desc>
    <defs></defs>
    <g id="Symbols" stroke="none" stroke-width="1" fill="none" fill-rule="evenodd">
        <g id="Icons-/-Search" fill="#BCC8D1" fill-rule="nonzero">
            <g id="Group">
                <path d="M12.6200905,11.1738088 L16.4550097,14.9217658 C16.652199,15.1150816 16.655339,15.4316485 16.4620232,15.6288378 C16.2687075,15.8260271 15.9521405,15.8291672 15.7549513,15.6358514 L11.9663134,11.9331263 C10.6982757,13.2096411 8.94143695,14 7,14 C3.13400675,14 1.77635684e-14,10.8659932 1.77635684e-14,7 C1.77635684e-14,3.13400675 3.13400675,0 7,0 C10.8659932,0 14,3.13400675 14,7 C14,8.56410997 13.487006,10.0084038 12.6200905,11.1738088 Z M7,13 C10.3137085,13 13,10.3137085 13,7 C13,3.6862915 10.3137085,1 7,1 C3.6862915,1 1,3.6862915 1,7 C1,10.3137085 3.6862915,13 7,13 Z" id="Combined-Shape"></path>
            </g>
        </g>
    </g>
</svg>